
######## ######## ######## ##          ######## ########  ######## ######## 
##       ##       ##       ##          ##       ##     ## ##       ##       
##       ##       ##       ##          ##       ##     ## ##       ##       
######   ######   ######   ##          ######   ########  ######   ######   
##       ##       ##       ##          ##       ##   ##   ##       ##       
##       ##       ##       ##          ##       ##    ##  ##       ##       
##       ######## ######## ########    ##       ##     ## ######## ######## 

Genre:Drama/Fantasy
Language:English
IMDb: 
http://www.imdb.com/title/tt1212419/
Source:BluRay.x264-TWiZTED
Subtitles:Romana


Format : MPEG-4
Format profile : Base Media
Codec ID : isom
File size : 2.81 GiB
Duration : 2h 9mn
Overall bit rate : 3 119 Kbps


Video
Format profile : High@L4.1
Format settings, CABAC : Yes
Format settings, ReFrames : 3 frames
Codec ID : avc1
Codec ID/Info : Advanced Video Coding
Duration : 2h 9mn
Bit rate mode : Variable
Bit rate : 2 731 Kbps
Maximum bit rate : 31.8 Mbps
Width : 1 280 pixels
Height : 536 pixels
Display aspect ratio : 2.35:1
Frame rate mode : Constant
Frame rate : 23.976 fps
Color space : YUV
Chroma subsampling : 4:2:0
Bit depth : 8 bits
Scan type : Progressive
Bits/(Pixel*Frame) : 0.166
Stream size : 2.45 GiB (87%)
Writing library : x264


Audio
ID : 2
Format : AAC
Format/Info : Advanced Audio Codec
Format version : Version 4
Format profile : LC
Format settings, SBR : No
Codec ID : 40
Duration : 2h 9mn
Bit rate mode : Variable
Bit rate : 401 Kbps
Maximum bit rate : 536 Kbps
Channel(s) : 6 channels
Channel positions : Front: L C R, Side: L R, LFE
Sampling rate : 48.0 KHz
Stream size : 370 MiB (13%)

Plot:
A drama centered on three people -- a blue-collar American, a French journalist and a London school boy -- who are touched by death in different ways






================================== 
http://thepiratebay.org/user/hiest
==================================






Screen Shots:
 
http://www.postimg.com/30000/29051.jpg
 
http://www.postimg.com/30000/29053.jpg
 
http://www.postimg.com/30000/29055.jpg
 
http://www.postimg.com/30000/29054.jpg
 
http://www.postimg.com/30000/29052.jpg


######## ######## ######## ##          ######## ########  ######## ######## 
##       ##       ##       ##          ##       ##     ## ##       ##       
##       ##       ##       ##          ##       ##     ## ##       ##       
######   ######   ######   ##          ######   ########  ######   ######   
##       ##       ##       ##          ##       ##   ##   ##       ##       
##       ##       ##       ##          ##       ##    ##  ##       ##       
##       ######## ######## ########    ##       ##     ## ######## ######## 
